<svg width="402" height="80" viewBox="0 0 402 80" fill="none" xmlns="http://www.w3.org/2000/svg">
<path d="M78.5 6.17006C50.1 15.7701 14.8333 35.1667 0.5 43.5C44.5 23.5 38.5 22.5 79 17C118.394 11.6502 145.611 22.8597 170.5 27.5C200 33 217.5 36.83 254.5 41C284.633 44.3962 311.895 41.7136 322.254 40.6943L322.5 40.67C322.5 40.67 274.9 42.87 250.5 33.67C220 22.17 195.5 16.1701 170.5 9.17006C145.5 2.17006 114 -5.82994 78.5 6.17006Z" fill="#543729"/>
<path d="M402 80H0L0.5 43.5C22.9 32.3 37.8333 25.8333 42.5 24C91 10.5 119.5 14.5 166.5 25.5C213.5 36.5 248.5 39.5 273.5 41.5C285.717 42.4773 299.366 42.3801 312.523 41.5C326.29 40.5791 339.518 38.801 350 36.5C366.4 32.9 385.5 17.6667 393 10.5L402 4V80Z" fill="#DCB983"/>
</svg>
